CharisSIL-BI.ufo
<glyph name="DigitOne" format="1">
  <advance width="1225"/>
  <unicode hex="0031"/>
  <outline>
    <contour>
      <point x="954" y="1407" type="line"/>
      <point x="815" y="1407" type="line"/>
      <point x="305" y="1266" type="line"/>
      <point x="305" y="1151" type="line"/>
      <point x="623" y="1194" type="line"/>
      <point x="418" y="156" type="line" smooth="yes"/>
      <point x="416" y="141"/>
      <point x="399" y="127"/>
      <point x="383" y="127" type="curve" smooth="yes"/>
      <point x="172" y="115" type="line"/>
      <point x="172" y="0" type="line"/>
      <point x="901" y="0" type="line"/>
      <point x="901" y="113" type="line"/>
      <point x="748" y="127" type="line" smooth="yes"/>
      <point x="723" y="129"/>
      <point x="705" y="139"/>
      <point x="709" y="156" type="curve" smooth="yes"/>
    </contour>
    <contour>
      <point x="787" y="1500" type="move" name="U"/>
    </contour>
    <contour>
      <point x="499" y="-100" type="move" name="L"/>
    </contour>
  </outline>
</glyph>
<glyph name="LtnCapA" format="1">
  <advance width="1464"/>
  <unicode hex="0041"/>
  <outline>
    <contour>
      <point x="1368" y="0" type="line"/>
      <point x="1368" y="102" type="line"/>
      <point x="1323" y="106"/>
      <point x="1274" y="111"/>
      <point x="1274" y="111" type="curve"/>
      <point x="1243" y="115"/>
      <point x="1237" y="119"/>
      <point x="1233" y="145" type="curve" smooth="yes"/>
      <point x="1010" y="1407" type="line"/>
      <point x="768" y="1407" type="line"/>
      <point x="10" y="115" type="line"/>
      <point x="-109" y="102" type="line"/>
      <point x="-109" y="0" type="line"/>
      <point x="418" y="0" type="line"/>
      <point x="418" y="102" type="line"/>
      <point x="367" y="106"/>
      <point x="311" y="113"/>
      <point x="311" y="113" type="curve"/>
      <point x="285" y="115"/>
      <point x="272" y="123"/>
      <point x="285" y="143" type="curve" smooth="yes"/>
      <point x="487" y="518" type="line"/>
      <point x="874" y="518" type="line"/>
      <point x="934" y="143" type="line" smooth="yes"/>
      <point x="938" y="119"/>
      <point x="922" y="115"/>
      <point x="895" y="113" type="curve"/>
      <point x="895" y="113"/>
      <point x="844" y="106"/>
      <point x="801" y="102" type="curve"/>
      <point x="801" y="0" type="line"/>
    </contour>
    <contour>
      <point x="852" y="635" type="line"/>
      <point x="555" y="635" type="line"/>
      <point x="784" y="1032" type="line"/>
    </contour>
    <contour>
      <point x="879" y="1500" type="move" name="U"/>
    </contour>
    <contour>
      <point x="591" y="-100" type="move" name="L"/>
    </contour>
    <contour>
      <point x="1254" y="0" type="move" name="O"/>
    </contour>
    <contour>
      <point x="600" y="0" type="move" name="H"/>
    </contour>
  </outline>
</glyph>
<glyph name="LtnSmEshCurl" format="1">
  <advance width="645"/>
  <unicode hex="0286"/>
  <outline>
    <contour>
      <point x="920" y="1386" type="curve" smooth="yes"/>
      <point x="920" y="1460"/>
      <point x="852" y="1509"/>
      <point x="756" y="1509" type="curve" smooth="yes"/>
      <point x="416" y="1509"/>
      <point x="256" y="1313"/>
      <point x="240" y="1083" type="curve" smooth="yes"/>
      <point x="160" y="-37" type="line"/>
      <point x="127" y="-10"/>
      <point x="78" y="-16"/>
      <point x="43" y="-16" type="curve" smooth="yes"/>
      <point x="-117" y="-16"/>
      <point x="-252" y="-150"/>
      <point x="-252" y="-295" type="curve" smooth="yes"/>
      <point x="-252" y="-401"/>
      <point x="-137" y="-469"/>
      <point x="-35" y="-469" type="curve" smooth="yes"/>
      <point x="109" y="-469"/>
      <point x="215" y="-432"/>
      <point x="291" y="-356" type="curve"/>
      <point x="311" y="-389"/>
      <point x="332" y="-430"/>
      <point x="352" y="-479" type="curve"/>
      <point x="498" y="-426" type="line"/>
      <point x="463" y="-340"/>
      <point x="444" y="-307"/>
      <point x="393" y="-231" type="curve"/>
      <point x="434" y="-133"/>
      <point x="436" y="-16"/>
      <point x="442" y="63" type="curve" smooth="yes"/>
      <point x="514" y="1104" type="line" smooth="yes"/>
      <point x="518" y="1174"/>
      <point x="535" y="1362"/>
      <point x="653" y="1362" type="curve"/>
      <point x="784" y="1221" type="line"/>
      <point x="891" y="1255"/>
      <point x="920" y="1331"/>
    </contour>
    <contour>
      <point x="141" y="-174" type="curve"/>
      <point x="139" y="-264"/>
      <point x="98" y="-352"/>
      <point x="10" y="-352" type="curve" smooth="yes"/>
      <point x="-35" y="-352"/>
      <point x="-61" y="-326"/>
      <point x="-61" y="-283" type="curve" smooth="yes"/>
      <point x="-61" y="-209"/>
      <point x="-16" y="-133"/>
      <point x="55" y="-133" type="curve" smooth="yes"/>
      <point x="84" y="-133"/>
      <point x="106" y="-145"/>
    </contour>
    <contour>
      <point x="519" y="1540" type="move" name="U"/>
    </contour>
    <contour>
      <point x="127" y="-500" type="move" name="L"/>
    </contour>
  </outline>
</glyph>
<glyph name="CombCircum" format="1">
  <advance width="0"/>
  <unicode hex="0302"/>
  <outline>
    <contour>
      <point x="-90" y="1128" type="line"/>
      <point x="-248" y="1479" type="line"/>
      <point x="-489" y="1479" type="line"/>
      <point x="-786" y="1128" type="line"/>
      <point x="-616" y="1128" type="line"/>
      <point x="-399" y="1323" type="line"/>
      <point x="-262" y="1128" type="line"/>
    </contour>
    <contour>
      <point x="-399" y="1500" type="move" name="U"/>
    </contour>
    <contour>
      <point x="-443" y="1100" type="move" name="_U"/>
    </contour>
  </outline>
</glyph>
<glyph name="CombDblOverline" format="1">
  <advance width="0"/>
  <unicode hex="033F"/>
  <outline>
    <contour>
      <point x="305" y="1365" type="line"/>
      <point x="-1093" y="1365" type="line"/>
      <point x="-1126" y="1200" type="line"/>
      <point x="274" y="1200" type="line"/>
    </contour>
    <contour>
      <point x="365" y="1630" type="line"/>
      <point x="-1033" y="1630" type="line"/>
      <point x="-1066" y="1465" type="line"/>
      <point x="334" y="1465" type="line"/>
    </contour>
    <contour>
      <point x="-363" y="1580" type="move" name="U"/>
    </contour>
    <contour>
      <point x="-443" y="1100" type="move" name="_U"/>
    </contour>
  </outline>
</glyph>
<glyph name="CombRtDotAbv" format="1">
  <advance width="329"/>
  <unicode hex="0358"/>
  <outline>
    <contour>
      <point x="392" y="1339" type="curve" smooth="yes"/>
      <point x="392" y="1423"/>
      <point x="333" y="1489"/>
      <point x="253" y="1489" type="curve" smooth="yes"/>
      <point x="171" y="1489"/>
      <point x="116" y="1421"/>
      <point x="116" y="1339" type="curve" smooth="yes"/>
      <point x="116" y="1259"/>
      <point x="175" y="1200"/>
      <point x="255" y="1200" type="curve" smooth="yes"/>
      <point x="333" y="1200"/>
      <point x="392" y="1264"/>
    </contour>
    <contour>
      <point x="300" y="1700" type="move" name="U"/>
    </contour>
    <contour>
      <point x="0" y="1200" type="move" name="_R"/>
    </contour>
  </outline>
</glyph>
<glyph name="CombDblBreveBlw" format="1">
  <advance width="0"/>
  <unicode hex="035C"/>
  <outline>
    <contour>
      <point x="580" y="-440" type="curve"/>
      <point x="518" y="-375" type="line"/>
      <point x="398" y="-508"/>
      <point x="71" y="-537"/>
      <point x="-218" y="-537" type="curve" smooth="yes"/>
      <point x="-510" y="-537"/>
      <point x="-810" y="-508"/>
      <point x="-884" y="-375" type="curve"/>
      <point x="-970" y="-440" type="line"/>
      <point x="-886" y="-621"/>
      <point x="-630" y="-715"/>
      <point x="-243" y="-715" type="curve" smooth="yes"/>
      <point x="142" y="-715"/>
      <point x="432" y="-616"/>
    </contour>
    <contour>
      <point x="-240" y="-700" type="move" name="L"/>
    </contour>
  </outline>
</glyph>
<glyph name="RomNumFiftyEarly" format="1">
  <advance width="1378"/>
  <unicode hex="2186"/>
  <outline>
    <contour>
      <point x="1382" y="864" type="line"/>
      <point x="1126" y="864" type="line"/>
      <point x="603" y="157" type="line"/>
      <point x="336" y="864" type="line"/>
      <point x="84" y="864" type="line"/>
      <point x="471" y="-33" type="line"/>
      <point x="663" y="-33" type="line"/>
    </contour>
    <contour>
      <point x="973" y="1374" type="line"/>
      <point x="687" y="1374" type="line"/>
      <point x="451" y="141" type="line" smooth="yes"/>
      <point x="433" y="43"/>
      <point x="734" y="122"/>
      <point x="737" y="141" type="curve" smooth="yes"/>
    </contour>
    <contour>
      <point x="851" y="1500" type="move" name="U"/>
    </contour>
  </outline>
</glyph>
<glyph name="LtnSmVRtHook" format="1">
  <advance width="1030"/>
  <unicode hex="2C71"/>
  <outline>
    <contour>
      <point x="1199" y="1144" type="curve" smooth="yes"/>
      <point x="945" y="1144"/>
      <point x="740" y="870"/>
      <point x="520" y="408" type="curve"/>
      <point x="471" y="870" type="line" smooth="yes"/>
      <point x="461" y="973"/>
      <point x="385" y="1022"/>
      <point x="244" y="1024" type="curve"/>
      <point x="4" y="950" type="line"/>
      <point x="4" y="879" type="line"/>
      <point x="68" y="877"/>
      <point x="137" y="874"/>
      <point x="137" y="874" type="curve"/>
      <point x="172" y="872"/>
      <point x="182" y="870"/>
      <point x="195" y="838" type="curve" smooth="yes"/>
      <point x="236" y="731"/>
      <point x="281" y="156"/>
      <point x="281" y="139" type="curve" smooth="yes"/>
      <point x="283" y="96"/>
      <point x="268" y="45"/>
      <point x="233" y="-25" type="curve"/>
      <point x="477" y="-25" type="line"/>
      <point x="834" y="748"/>
      <point x="998" y="972"/>
      <point x="1097" y="992" type="curve"/>
      <point x="1224" y="870" type="line"/>
      <point x="1288" y="876"/>
      <point x="1384" y="904"/>
      <point x="1384" y="1003" type="curve" smooth="yes"/>
      <point x="1384" y="1062"/>
      <point x="1341" y="1144"/>
    </contour>
    <contour>
      <point x="569" y="1100" type="move" name="U"/>
    </contour>
    <contour>
      <point x="325" y="-100" type="move" name="L"/>
    </contour>
    <contour>
      <point x="530" y="0" type="move" name="O"/>
    </contour>
    <contour>
      <point x="358" y="0" type="move" name="H"/>
    </contour>
  </outline>
</glyph>
<glyph name="LtnCapILonga" format="1">
  <advance width="729"/>
  <unicode hex="A7FE"/>
  <outline>
    <contour>
      <point x="875" y="1572" type="line"/>
      <point x="875" y="1674" type="line"/>
      <point x="257" y="1674" type="line"/>
      <point x="257" y="1572" type="line"/>
      <point x="312" y="1566"/>
      <point x="373" y="1562"/>
      <point x="373" y="1562" type="curve"/>
      <point x="400" y="1560"/>
      <point x="416" y="1555"/>
      <point x="410" y="1531" type="curve"/>
      <point x="137" y="145" type="line"/>
      <point x="133" y="117"/>
      <point x="121" y="113"/>
      <point x="90" y="111" type="curve"/>
      <point x="90" y="111"/>
      <point x="29" y="106"/>
      <point x="-31" y="102" type="curve"/>
      <point x="-31" y="0" type="line"/>
      <point x="590" y="0" type="line"/>
      <point x="590" y="102" type="line"/>
      <point x="524" y="109"/>
      <point x="461" y="113"/>
      <point x="461" y="113" type="curve"/>
      <point x="434" y="115"/>
      <point x="426" y="121"/>
      <point x="430" y="143" type="curve" smooth="yes"/>
      <point x="703" y="1529" type="line" smooth="yes"/>
      <point x="707" y="1547"/>
      <point x="713" y="1560"/>
      <point x="734" y="1562" type="curve" smooth="yes"/>
    </contour>
    <contour>
      <point x="591" y="1800" type="move" name="U"/>
    </contour>
    <contour>
      <point x="243" y="-100" type="move" name="L"/>
    </contour>
    <contour>
      <point x="452" y="0" type="move" name="O"/>
    </contour>
    <contour>
      <point x="263" y="0" type="move" name="H"/>
    </contour>
    <contour>
      <point x="780" y="1200" type="move" name="R"/>
    </contour>
  </outline>
</glyph>
<glyph name="ModSmCapNDep" format="1">
  <advance width="809"/>
  <unicode hex="F1C2"/>
  <outline>
    <contour>
      <point x="40" y="754" type="line"/>
      <point x="976" y="754" type="line"/>
      <point x="976" y="1412" type="line"/>
      <point x="40" y="1412" type="line"/>
    </contour>
    <contour>
      <point x="874" y="1323" type="line"/>
      <point x="868" y="1323"/>
      <point x="860" y="1315"/>
      <point x="858" y="1309" type="curve" smooth="yes"/>
      <point x="729" y="784" type="line"/>
      <point x="602" y="784" type="line"/>
      <point x="369" y="1190" type="line"/>
      <point x="289" y="860" type="line" smooth="yes"/>
      <point x="287" y="854"/>
      <point x="295" y="844"/>
      <point x="305" y="844" type="curve"/>
      <point x="305" y="844"/>
      <point x="332" y="842"/>
      <point x="367" y="840" type="curve"/>
      <point x="367" y="784" type="line"/>
      <point x="70" y="784" type="line"/>
      <point x="70" y="840" type="line"/>
      <point x="104" y="842"/>
      <point x="135" y="844"/>
      <point x="135" y="844" type="curve" smooth="yes"/>
      <point x="150" y="844"/>
      <point x="156" y="854"/>
      <point x="158" y="860" type="curve" smooth="yes"/>
      <point x="266" y="1309" type="line" smooth="yes"/>
      <point x="268" y="1315"/>
      <point x="260" y="1325"/>
      <point x="252" y="1325" type="curve"/>
      <point x="252" y="1325"/>
      <point x="223" y="1327"/>
      <point x="186" y="1329" type="curve"/>
      <point x="186" y="1382" type="line"/>
      <point x="451" y="1382" type="line"/>
      <point x="451" y="1352" type="line"/>
      <point x="653" y="1001" type="line"/>
      <point x="727" y="1309" type="line" smooth="yes"/>
      <point x="729" y="1317"/>
      <point x="721" y="1325"/>
      <point x="713" y="1325" type="curve"/>
      <point x="713" y="1325"/>
      <point x="684" y="1327"/>
      <point x="649" y="1329" type="curve"/>
      <point x="649" y="1382" type="line"/>
      <point x="946" y="1382" type="line"/>
      <point x="946" y="1329" type="line"/>
    </contour>
    <contour>
      <point x="567" y="1450" type="move" name="U"/>
    </contour>
    <contour>
      <point x="436" y="725" type="move" name="L"/>
    </contour>
  </outline>
</glyph>
<glyph name="ModLowCircumDep" format="1">
  <advance width="696"/>
  <unicode hex="F1E7"/>
  <outline>
    <contour>
      <point x="-311" y="-534" type="line"/>
      <point x="445" y="-534" type="line"/>
      <point x="445" y="-123" type="line"/>
      <point x="-311" y="-123" type="line"/>
    </contour>
    <contour>
      <point x="243" y="-504" type="line"/>
      <point x="106" y="-309" type="line"/>
      <point x="-111" y="-504" type="line"/>
      <point x="-281" y="-504" type="line"/>
      <point x="16" y="-153" type="line"/>
      <point x="257" y="-153" type="line"/>
      <point x="415" y="-504" type="line"/>
    </contour>
  </outline>
</glyph>
<glyph name="TnLtrNineSeg55" format="1">
  <advance width="1080"/>
  <unicode hex="F1F5"/>
  <outline>
    <contour>
      <point x="114" y="514" type="curve" smooth="yes"/>
      <point x="1192" y="514" type="line" smooth="yes"/>
      <point x="1234" y="514"/>
      <point x="1269" y="549"/>
      <point x="1269" y="591" type="curve" smooth="yes"/>
      <point x="1269" y="633"/>
      <point x="1234" y="668"/>
      <point x="1192" y="668" type="curve" smooth="yes"/>
      <point x="114" y="668" type="line" smooth="yes"/>
      <point x="72" y="668"/>
      <point x="37" y="633"/>
      <point x="37" y="591" type="curve" smooth="yes"/>
      <point x="37" y="549"/>
      <point x="72" y="514"/>
    </contour>
  </outline>
</glyph>
<glyph name="LtnSmMPalHookDep" format="1">
  <advance width="1786"/>
  <unicode hex="F22B"/>
  <outline>
    <contour>
      <point x="7" y="-499" type="line"/>
      <point x="1716" y="-499" type="line"/>
      <point x="1716" y="1054" type="line"/>
      <point x="7" y="1054" type="line"/>
    </contour>
    <contour>
      <point x="1686" y="59" type="line"/>
      <point x="1685" y="58"/>
      <point x="1684" y="58"/>
      <point x="1684" y="58" type="curve"/>
      <point x="1629" y="-215" type="line" smooth="yes"/>
      <point x="1592" y="-397"/>
      <point x="1395" y="-469"/>
      <point x="1266" y="-469" type="curve" smooth="yes"/>
      <point x="1166" y="-469"/>
      <point x="1041" y="-428"/>
      <point x="1041" y="-328" type="curve" smooth="yes"/>
      <point x="1041" y="-221"/>
      <point x="1121" y="-176"/>
      <point x="1195" y="-139" type="curve"/>
      <point x="1354" y="-326" type="line"/>
      <point x="1434" y="-326"/>
      <point x="1481" y="-309"/>
      <point x="1500" y="-219" type="curve"/>
      <point x="1543" y="0" type="line"/>
      <point x="1491" y="-16"/>
      <point x="1439" y="-25"/>
      <point x="1384" y="-25" type="curve" smooth="yes"/>
      <point x="1260" y="-25"/>
      <point x="1157" y="27"/>
      <point x="1178" y="127" type="curve" smooth="yes"/>
      <point x="1290" y="672" type="line"/>
      <point x="1317" y="799"/>
      <point x="1305" y="864"/>
      <point x="1251" y="864" type="curve" smooth="yes"/>
      <point x="1130" y="864"/>
      <point x="1040" y="743"/>
      <point x="1012" y="698" type="curve"/>
      <point x="864" y="0" type="line"/>
      <point x="594" y="0" type="line"/>
      <point x="735" y="674" type="line" smooth="yes"/>
      <point x="752" y="754"/>
      <point x="774" y="864"/>
      <point x="686" y="864" type="curve" smooth="yes"/>
      <point x="600" y="864"/>
      <point x="508" y="758"/>
      <point x="455" y="694" type="curve"/>
      <point x="309" y="0" type="line"/>
      <point x="37" y="0" type="line"/>
      <point x="217" y="870" type="line"/>
      <point x="45" y="887" type="line"/>
      <point x="45" y="956" type="line"/>
      <point x="383" y="1024" type="line"/>
      <point x="524" y="1024" type="line"/>
      <point x="500" y="907" type="line"/>
      <point x="598" y="975"/>
      <point x="707" y="1024"/>
      <point x="801" y="1024" type="curve" smooth="yes"/>
      <point x="913" y="1024"/>
      <point x="979" y="954"/>
      <point x="1010" y="885" type="curve"/>
      <point x="1116" y="965"/>
      <point x="1255" y="1024"/>
      <point x="1362" y="1024" type="curve" smooth="yes"/>
      <point x="1507" y="1024"/>
      <point x="1616" y="918"/>
      <point x="1581" y="756" type="curve" smooth="yes"/>
      <point x="1464" y="205" type="line" smooth="yes"/>
      <point x="1452" y="147"/>
      <point x="1464" y="102"/>
      <point x="1516" y="102" type="curve" smooth="yes"/>
      <point x="1544" y="102"/>
      <point x="1628" y="125"/>
      <point x="1686" y="154" type="curve"/>
    </contour>
    <contour>
      <point x="986" y="1100" type="move" name="U"/>
    </contour>
    <contour>
      <point x="742" y="-100" type="move" name="L"/>
    </contour>
  </outline>
</glyph>
<glyph name="LtnSmARetrHookDep" format="1">
  <advance width="1163"/>
  <unicode hex="F236"/>
  <outline>
    <contour>
      <point x="36" y="-499" type="line"/>
      <point x="1550" y="-499" type="line"/>
      <point x="1550" y="1054" type="line"/>
      <point x="36" y="1054" type="line"/>
    </contour>
    <contour>
      <point x="1520" y="-274" type="curve" smooth="yes"/>
      <point x="1520" y="-424"/>
      <point x="1356" y="-469"/>
      <point x="1231" y="-469" type="curve" smooth="yes"/>
      <point x="1108" y="-469"/>
      <point x="965" y="-403"/>
      <point x="965" y="-262" type="curve" smooth="yes"/>
      <point x="965" y="-192"/>
      <point x="994" y="-78"/>
      <point x="1015" y="7" type="curve"/>
      <point x="959" y="-11"/>
      <point x="901" y="-25"/>
      <point x="846" y="-25" type="curve" smooth="yes"/>
      <point x="760" y="-25"/>
      <point x="700" y="8"/>
      <point x="674" y="68" type="curve"/>
      <point x="602" y="20"/>
      <point x="506" y="-25"/>
      <point x="408" y="-25" type="curve" smooth="yes"/>
      <point x="156" y="-25"/>
      <point x="66" y="197"/>
      <point x="66" y="350" type="curve" smooth="yes"/>
      <point x="66" y="655"/>
      <point x="264" y="1024"/>
      <point x="705" y="1024" type="curve" smooth="yes"/>
      <point x="764" y="1024"/>
      <point x="827" y="1006"/>
      <point x="874" y="981" type="curve"/>
      <point x="889" y="999" type="line"/>
      <point x="1108" y="999" type="line"/>
      <point x="1094" y="958"/>
      <point x="1061" y="893"/>
      <point x="1057" y="874" type="curve" smooth="yes"/>
      <point x="924" y="199" type="line"/>
      <point x="924" y="137"/>
      <point x="930" y="117"/>
      <point x="979" y="117" type="curve" smooth="yes"/>
      <point x="989" y="117"/>
      <point x="1137" y="156"/>
      <point x="1157" y="160" type="curve"/>
      <point x="1157" y="61" type="line"/>
      <point x="1140" y="-21"/>
      <point x="1096" y="-174"/>
      <point x="1096" y="-256" type="curve" smooth="yes"/>
      <point x="1096" y="-322"/>
      <point x="1149" y="-326"/>
      <point x="1200" y="-326" type="curve"/>
      <point x="1434" y="-139" type="line"/>
      <point x="1487" y="-172"/>
      <point x="1520" y="-209"/>
    </contour>
    <contour>
      <point x="768" y="807" type="curve"/>
      <point x="772" y="819"/>
      <point x="758" y="905"/>
      <point x="735" y="905" type="curve" smooth="yes"/>
      <point x="473" y="905"/>
      <point x="354" y="596"/>
      <point x="354" y="362" type="curve" smooth="yes"/>
      <point x="354" y="254"/>
      <point x="350" y="129"/>
      <point x="473" y="129" type="curve" smooth="yes"/>
      <point x="561" y="129"/>
      <point x="633" y="221"/>
      <point x="662" y="248" type="curve"/>
      <point x="692" y="412"/>
      <point x="672" y="305"/>
    </contour>
    <contour>
      <point x="741" y="1100" type="move" name="U"/>
    </contour>
    <contour>
      <point x="497" y="-100" type="move" name="L"/>
    </contour>
  </outline>
</glyph>
<glyph name="CombMacronBlw.Short" format="1">
  <advance width="0"/>
  <outline>
    <contour>
      <point x="-157" y="-175" type="line"/>
      <point x="-663" y="-175" type="line"/>
      <point x="-696" y="-340" type="line"/>
      <point x="-188" y="-340" type="line"/>
    </contour>
    <contour>
      <point x="-469" y="-500" type="move" name="L"/>
    </contour>
    <contour>
      <point x="-393" y="-100" type="move" name="_L"/>
    </contour>
  </outline>
</glyph>
<glyph name="CombMacron.Short" format="1">
  <advance width="496"/>
  <outline>
    <contour>
      <point x="668" y="1365" type="line"/>
      <point x="162" y="1365" type="line"/>
      <point x="129" y="1200" type="line"/>
      <point x="637" y="1200" type="line"/>
    </contour>
    <contour>
      <point x="422" y="1470" type="move" name="U"/>
    </contour>
    <contour>
      <point x="363" y="1100" type="move" name="_U"/>
    </contour>
  </outline>
</glyph>
<glyph name="LtnCapEng.Kom" format="1">
  <advance width="1561"/>
  <outline>
    <contour>
      <point x="1487" y="1044" type="curve" smooth="yes"/>
      <point x="1487" y="1249"/>
      <point x="1311" y="1407"/>
      <point x="1073" y="1407" type="curve" smooth="yes"/>
      <point x="899" y="1407"/>
      <point x="758" y="1334"/>
      <point x="643" y="1232" type="curve"/>
      <point x="673" y="1374" type="line"/>
      <point x="195" y="1374" type="line"/>
      <point x="195" y="1272" type="line"/>
      <point x="250" y="1268"/>
      <point x="311" y="1264"/>
      <point x="311" y="1264" type="curve"/>
      <point x="348" y="1260"/>
      <point x="353" y="1245"/>
      <point x="346" y="1210" type="curve" smooth="yes"/>
      <point x="263" y="786" type="line" smooth="yes"/>
      <point x="258" y="759"/>
      <point x="251" y="745"/>
      <point x="212" y="741" type="curve"/>
      <point x="212" y="741"/>
      <point x="151" y="736"/>
      <point x="93" y="732" type="curve"/>
      <point x="93" y="630" type="line"/>
      <point x="693" y="630" type="line"/>
      <point x="693" y="732" type="line"/>
      <point x="636" y="736"/>
      <point x="593" y="743"/>
      <point x="593" y="743" type="curve"/>
      <point x="564" y="745"/>
      <point x="551" y="759"/>
      <point x="556" y="786" type="curve" smooth="yes"/>
      <point x="586" y="934" type="line"/>
      <point x="668" y="1069"/>
      <point x="831" y="1237"/>
      <point x="983" y="1237" type="curve" smooth="yes"/>
      <point x="1083" y="1237"/>
      <point x="1215" y="1144"/>
      <point x="1186" y="975" type="curve" smooth="yes"/>
      <point x="1092" y="482" type="line" smooth="yes"/>
      <point x="1050" y="244"/>
      <point x="874" y="107"/>
      <point x="691" y="107" type="curve" smooth="yes"/>
      <point x="585" y="107"/>
      <point x="503" y="121"/>
      <point x="432" y="166" type="curve"/>
      <point x="475" y="369" type="line"/>
      <point x="447" y="409"/>
      <point x="388" y="460"/>
      <point x="317" y="460" type="curve" smooth="yes"/>
      <point x="208" y="460"/>
      <point x="127" y="393"/>
      <point x="127" y="293" type="curve" smooth="yes"/>
      <point x="127" y="124"/>
      <point x="370" y="-33"/>
      <point x="670" y="-33" type="curve" smooth="yes"/>
      <point x="1093" y="-33"/>
      <point x="1343" y="249"/>
      <point x="1388" y="482" type="curve" smooth="yes"/>
      <point x="1459" y="848"/>
      <point x="1487" y="982"/>
    </contour>
    <contour>
      <point x="990" y="1500" type="move" name="U"/>
    </contour>
    <contour>
      <point x="702" y="-100" type="move" name="L"/>
    </contour>
  </outline>
</glyph>
<glyph name="LtnSmNDiagStrk.sc" format="1">
  <advance width="1445"/>
  <outline>
    <contour>
      <point x="1496" y="1023" type="line"/>
      <point x="1496" y="1120" type="line"/>
      <point x="990" y="1120" type="line"/>
      <point x="990" y="1023" type="line"/>
      <point x="1040" y="1018"/>
      <point x="1096" y="1014"/>
      <point x="1096" y="1014" type="curve"/>
      <point x="1116" y="1013"/>
      <point x="1134" y="1009"/>
      <point x="1131" y="999" type="curve"/>
      <point x="995" y="393" type="line"/>
      <point x="995" y="394" type="line"/>
      <point x="636" y="1065" type="line"/>
      <point x="636" y="1120" type="line"/>
      <point x="202" y="1120" type="line"/>
      <point x="202" y="1023" type="line"/>
      <point x="254" y="1018"/>
      <point x="307" y="1014"/>
      <point x="307" y="1014" type="curve"/>
      <point x="329" y="1013"/>
      <point x="343" y="1010"/>
      <point x="340" y="999" type="curve"/>
      <point x="150" y="126" type="line"/>
      <point x="146" y="112"/>
      <point x="130" y="108"/>
      <point x="104" y="107" type="curve"/>
      <point x="104" y="107"/>
      <point x="51" y="103"/>
      <point x="-2" y="98" type="curve"/>
      <point x="-2" y="0" type="line"/>
      <point x="504" y="0" type="line"/>
      <point x="504" y="98" type="line"/>
      <point x="451" y="103"/>
      <point x="398" y="107"/>
      <point x="398" y="107" type="curve"/>
      <point x="375" y="108"/>
      <point x="365" y="114"/>
      <point x="364" y="121" type="curve"/>
      <point x="411" y="338"/>
      <point x="460" y="555"/>
      <point x="507" y="772" type="curve"/>
      <point x="507" y="770" type="line"/>
      <point x="923" y="0" type="line"/>
      <point x="1124" y="0" type="line"/>
      <point x="1345" y="994" type="line"/>
      <point x="1348" y="1004"/>
      <point x="1360" y="1010"/>
      <point x="1376" y="1013" type="curve"/>
    </contour>
    <contour>
      <point x="1493" y="671" type="line"/>
      <point x="1466" y="792" type="line"/>
      <point x="5" y="559" type="line"/>
      <point x="24" y="444" type="line"/>
    </contour>
    <contour>
      <point x="873" y="1238" type="move" name="U"/>
    </contour>
    <contour>
      <point x="608" y="-74" type="move" name="L"/>
    </contour>
  </outline>
</glyph>
<glyph name="LtnSmTHook.sc" format="1">
  <advance width="1183"/>
  <outline>
    <contour>
      <point x="1286" y="1120" type="line"/>
      <point x="421" y="1120" type="line"/>
      <point x="243" y="1120"/>
      <point x="121" y="1041"/>
      <point x="121" y="891" type="curve" smooth="yes"/>
      <point x="121" y="810"/>
      <point x="177" y="750"/>
      <point x="266" y="750" type="curve" smooth="yes"/>
      <point x="314" y="750"/>
      <point x="380" y="789"/>
      <point x="397" y="860" type="curve"/>
      <point x="281" y="973" type="line"/>
      <point x="285" y="1000"/>
      <point x="316" y="1014"/>
      <point x="387" y="1014" type="curve"/>
      <point x="576" y="1014" type="line"/>
      <point x="387" y="126" type="line"/>
      <point x="385" y="111"/>
      <point x="364" y="107"/>
      <point x="338" y="105" type="curve"/>
      <point x="338" y="105"/>
      <point x="284" y="101"/>
      <point x="236" y="98" type="curve"/>
      <point x="236" y="0" type="line"/>
      <point x="793" y="0" type="line"/>
      <point x="793" y="98" type="line"/>
      <point x="743" y="103"/>
      <point x="687" y="107"/>
      <point x="687" y="107" type="curve"/>
      <point x="666" y="108"/>
      <point x="651" y="112"/>
      <point x="651" y="121" type="curve"/>
      <point x="842" y="1021" type="line"/>
      <point x="842" y="1014" type="line"/>
      <point x="1043" y="1014" type="line"/>
      <point x="1061" y="1014"/>
      <point x="1085" y="1009"/>
      <point x="1084" y="1000" type="curve"/>
      <point x="1075" y="817" type="line"/>
      <point x="1216" y="817" type="line"/>
    </contour>
    <contour>
      <point x="737" y="1238" type="move" name="U"/>
    </contour>
    <contour>
      <point x="472" y="-74" type="move" name="L"/>
    </contour>
  </outline>
</glyph>
<glyph name="LtnSmTnFive.sc" format="1">
  <advance width="1225"/>
  <outline>
    <contour>
      <point x="514" y="972" type="line"/>
      <point x="517" y="982"/>
      <point x="535" y="1000"/>
      <point x="563" y="1000" type="curve"/>
      <point x="969" y="1000" type="line"/>
      <point x="985" y="1000"/>
      <point x="998" y="990"/>
      <point x="997" y="977" type="curve"/>
      <point x="995" y="816" type="line"/>
      <point x="1129" y="816" type="line"/>
      <point x="1187" y="1120" type="line"/>
      <point x="195" y="1120" type="line"/>
      <point x="172" y="1006" type="line"/>
      <point x="205" y="1004"/>
      <point x="242" y="1001"/>
      <point x="276" y="1000" type="curve"/>
      <point x="301" y="996"/>
      <point x="312" y="984"/>
      <point x="309" y="975" type="curve"/>
      <point x="234" y="622" type="line"/>
      <point x="528" y="622"/>
      <point x="761" y="526"/>
      <point x="761" y="349" type="curve" smooth="yes"/>
      <point x="761" y="204"/>
      <point x="625" y="97"/>
      <point x="448" y="97" type="curve" smooth="yes"/>
      <point x="373" y="97"/>
      <point x="294" y="125"/>
      <point x="270" y="148" type="curve"/>
      <point x="270" y="144" type="line"/>
      <point x="235" y="294" type="line"/>
      <point x="227" y="295"/>
      <point x="194" y="302"/>
      <point x="176" y="302" type="curve" smooth="yes"/>
      <point x="104" y="302"/>
      <point x="24" y="251"/>
      <point x="24" y="161" type="curve" smooth="yes"/>
      <point x="24" y="59"/>
      <point x="189" y="-26"/>
      <point x="399" y="-26" type="curve" smooth="yes"/>
      <point x="760" y="-26"/>
      <point x="1022" y="125"/>
      <point x="1022" y="389" type="curve" smooth="yes"/>
      <point x="1022" y="657"/>
      <point x="698" y="753"/>
      <point x="471" y="772" type="curve"/>
    </contour>
    <contour>
      <point x="707" y="1238" type="move" name="U"/>
    </contour>
    <contour>
      <point x="442" y="-74" type="move" name="L"/>
    </contour>
  </outline>
</glyph>
<glyph name="TnLtrNineSeg13" format="1">
  <advance width="1080"/>
  <outline>
    <contour>
      <point x="-11" y="-266" type="curve" smooth="yes"/>
      <point x="1142" y="126" type="line" smooth="yes"/>
      <point x="1182" y="140"/>
      <point x="1204" y="184"/>
      <point x="1190" y="224" type="curve" smooth="yes"/>
      <point x="1176" y="264"/>
      <point x="1132" y="286"/>
      <point x="1092" y="272" type="curve" smooth="yes"/>
      <point x="-61" y="-120" type="line" smooth="yes"/>
      <point x="-101" y="-134"/>
      <point x="-123" y="-178"/>
      <point x="-109" y="-218" type="curve" smooth="yes"/>
      <point x="-95" y="-258"/>
      <point x="-51" y="-280"/>
    </contour>
  </outline>
</glyph>
<glyph name="TnLtrNineSeg82" format="1">
  <advance width="1080"/>
  <outline>
    <contour>
      <point x="164" y="1134" type="curve" smooth="yes"/>
      <point x="1018" y="-42" type="line" smooth="yes"/>
      <point x="1043" y="-76"/>
      <point x="1091" y="-84"/>
      <point x="1125" y="-59" type="curve" smooth="yes"/>
      <point x="1159" y="-34"/>
      <point x="1167" y="14"/>
      <point x="1142" y="48" type="curve" smooth="yes"/>
      <point x="288" y="1224" type="line" smooth="yes"/>
      <point x="263" y="1258"/>
      <point x="215" y="1266"/>
      <point x="181" y="1241" type="curve" smooth="yes"/>
      <point x="147" y="1216"/>
      <point x="139" y="1168"/>
    </contour>
  </outline>
</glyph>
<glyph name="TnLtrNineSeg85" format="1">
  <advance width="1080"/>
  <outline>
    <contour>
      <point x="186" y="1113" type="curve" smooth="yes"/>
      <point x="1152" y="525" type="line" smooth="yes"/>
      <point x="1188" y="503"/>
      <point x="1236" y="515"/>
      <point x="1258" y="551" type="curve" smooth="yes"/>
      <point x="1280" y="587"/>
      <point x="1268" y="635"/>
      <point x="1232" y="657" type="curve" smooth="yes"/>
      <point x="266" y="1245" type="line" smooth="yes"/>
      <point x="230" y="1267"/>
      <point x="182" y="1255"/>
      <point x="160" y="1219" type="curve" smooth="yes"/>
      <point x="138" y="1183"/>
      <point x="150" y="1135"/>
    </contour>
  </outline>
</glyph>
